<svg width="97" height="32" viewBox="0 0 97 32" fill="none" xmlns="http://www.w3.org/2000/svg">
    <path d="M16.9375 1.87305H16.001C14.1458 1.87305 12.3087 2.23833 10.5947 2.94824C8.88065 3.65823 7.32264 4.69885 6.01074 6.01074C4.69888 7.32262 3.65822 8.88068 2.94824 10.5947C2.35808 12.0196 2.00624 13.5297 1.9043 15.0645H3.1377C4.70824 15.0646 5.98133 16.3377 5.98145 17.9082V18.251C5.98162 18.598 6.26329 18.8789 6.61035 18.8789C6.95731 18.8788 7.23811 18.5979 7.23828 18.251V15.0225C7.23842 13.641 8.35877 12.5206 9.74023 12.5205C11.1218 12.5205 12.242 13.641 12.2422 15.0225V22.4561C12.2423 22.8037 12.5243 23.0859 12.8721 23.0859C13.2197 23.0858 13.5018 22.8037 13.502 22.4561V9.54395C13.502 8.16307 14.6211 7.04303 16.002 7.04297C17.3829 7.04297 18.5029 8.16303 18.5029 9.54395V22.457C18.503 22.8041 18.7839 23.0858 19.1309 23.0859C19.478 23.0859 19.7597 22.8042 19.7598 22.457V15.0225C19.7599 13.641 20.8802 12.5205 22.2617 12.5205C23.6431 12.5207 24.7626 13.641 24.7627 15.0225V18.251C24.7629 18.598 25.0446 18.8788 25.3916 18.8789C25.7387 18.8789 26.0203 18.598 26.0205 18.251V17.9082C26.0206 16.3376 27.2937 15.0645 28.8643 15.0645H32.002V16.9375H31.9727C31.8682 18.7184 31.4685 20.4718 30.7842 22.124C29.9801 24.0653 28.8012 25.8297 27.3154 27.3154C25.8296 28.8012 24.0653 29.9801 22.124 30.7842C20.1828 31.5882 18.1021 32.0019 16.001 32.002H15.0645V30.1289H16.001C17.8561 30.1289 19.6933 29.7636 21.4072 29.0537C23.1213 28.3437 24.6793 27.3031 25.9912 25.9912C27.303 24.6794 28.3437 23.1212 29.0537 21.4072C29.6439 19.9824 29.9957 18.4722 30.0977 16.9375H28.8643C28.3281 16.9375 27.8937 17.3721 27.8936 17.9082V18.251C27.8934 19.6325 26.7731 20.752 25.3916 20.752C24.0101 20.7519 22.8898 19.6324 22.8896 18.251V15.0225C22.8895 14.6755 22.6087 14.3937 22.2617 14.3936C21.9146 14.3936 21.633 14.6754 21.6328 15.0225V22.457C21.6328 23.8386 20.5125 24.959 19.1309 24.959C17.7494 24.9588 16.6299 23.8385 16.6299 22.457V9.54395C16.6298 9.19748 16.3484 8.91602 16.002 8.91602C15.6555 8.91608 15.3751 9.19752 15.375 9.54395V22.4561C15.3749 23.8381 14.2541 24.9588 12.8721 24.959C11.4899 24.959 10.3693 23.8382 10.3691 22.4561V15.0225C10.369 14.6754 10.0873 14.3936 9.74023 14.3936C9.39322 14.3936 9.11147 14.6755 9.11133 15.0225V18.251C9.11115 19.6324 7.99176 20.7518 6.61035 20.752C5.22884 20.752 4.10857 19.6325 4.1084 18.251V17.9082C4.10828 17.3721 3.67378 16.9376 3.1377 16.9375H0V15.0645H0.0292969C0.133705 13.2835 0.533451 11.5302 1.21777 9.87793C2.02188 7.93664 3.20073 6.17233 4.68652 4.68652C6.17235 3.2007 7.93661 2.02189 9.87793 1.21777C11.8192 0.413724 13.8998 7.88893e-06 16.001 0H16.9375V1.87305Z" fill="url(#paint0_linear_5_1796)"/>
    <path d="M42.0146 18.7493V5.67505H47.5357C48.3745 5.67505 49.1381 5.86805 49.8267 6.25405C50.5278 6.6276 51.0849 7.1568 51.498 7.84164C51.9112 8.51403 52.1177 9.29849 52.1177 10.195C52.1177 11.0791 51.9112 11.8635 51.498 12.5484C51.0974 13.2332 50.5466 13.7686 49.8455 14.1546C49.1569 14.5282 48.3807 14.715 47.5169 14.715H44.2493V18.7493H42.0146ZM44.2493 12.7538H47.254C47.7422 12.7538 48.1804 12.6542 48.5685 12.455C48.9691 12.2558 49.2821 11.9631 49.5074 11.5771C49.7453 11.1911 49.8642 10.7367 49.8642 10.2137C49.8642 9.66581 49.7453 9.2051 49.5074 8.83155C49.2821 8.44555 48.9691 8.15293 48.5685 7.95371C48.1804 7.74203 47.7485 7.63619 47.2728 7.63619H44.2493V12.7538Z" fill="currentColor"/>
    <path d="M59.3397 18.9734C58.3006 18.9734 57.3804 18.7618 56.5792 18.3384C55.778 17.9026 55.1457 17.2862 54.6825 16.4893C54.2318 15.6924 54.0065 14.7399 54.0065 13.6317V5.67505H56.2412V13.8184C56.2412 14.3912 56.3664 14.9204 56.6167 15.406C56.8797 15.8916 57.2427 16.2839 57.7059 16.5827C58.1691 16.8691 58.72 17.0123 59.3585 17.0123C59.997 17.0123 60.5415 16.8691 60.9922 16.5827C61.4555 16.2839 61.8123 15.8916 62.0626 15.406C62.313 14.9204 62.4382 14.3912 62.4382 13.8184V5.67505H64.6917V13.6317C64.6917 14.7399 64.4601 15.6924 63.9969 16.4893C63.5337 17.2862 62.9014 17.9026 62.1002 18.3384C61.299 18.7618 60.3788 18.9734 59.3397 18.9734Z" fill="currentColor"/>
    <path d="M70.8706 18.7493C70.1319 18.7493 69.4809 18.5874 68.9175 18.2637C68.3667 17.9275 67.9348 17.4792 67.6218 16.9189C67.3213 16.3586 67.1711 15.736 67.1711 15.0512V5.67505H69.4246V15.3313C69.4246 15.7298 69.556 16.0722 69.8189 16.3586C70.0944 16.645 70.4449 16.7882 70.8706 16.7882H74.3634V18.7493H70.8706Z" fill="currentColor"/>
    <path d="M76.1606 18.7493V16.7882H81.8131C82.1762 16.7882 82.4892 16.701 82.7521 16.5267C83.0275 16.3524 83.2403 16.1282 83.3905 15.8543C83.5533 15.5679 83.6347 15.2691 83.6347 14.9578C83.6347 14.6216 83.5595 14.3165 83.4093 14.0426C83.2591 13.7686 83.0463 13.5507 82.7708 13.3889C82.5079 13.227 82.2012 13.1461 81.8507 13.1461H79.5033C78.7647 13.1461 78.1011 12.9966 77.5127 12.6978C76.9368 12.3865 76.4799 11.9569 76.1419 11.409C75.8038 10.8612 75.6348 10.2137 75.6348 9.46658C75.6348 8.71948 75.7976 8.06577 76.1231 7.50544C76.4486 6.93267 76.893 6.48441 77.4564 6.16066C78.0198 5.83692 78.6582 5.67505 79.3718 5.67505H85.0243V7.63619H79.5784C79.2529 7.63619 78.9587 7.71712 78.6958 7.879C78.4329 8.04087 78.2263 8.25255 78.0761 8.51403C77.9384 8.77552 77.8695 9.05568 77.8695 9.35452C77.8695 9.66581 77.9384 9.9522 78.0761 10.2137C78.2263 10.4627 78.4266 10.6682 78.677 10.83C78.9399 10.9795 79.2341 11.0542 79.5596 11.0542H81.9633C82.7646 11.0542 83.4531 11.2098 84.029 11.5211C84.6174 11.8324 85.0681 12.262 85.3811 12.8099C85.7066 13.3577 85.8694 13.9865 85.8694 14.6963C85.8694 15.5306 85.7003 16.2527 85.3623 16.8629C85.0368 17.4606 84.5861 17.9275 84.0102 18.2637C83.4469 18.5874 82.8084 18.7493 82.0948 18.7493H76.1606Z" fill="currentColor"/>
    <path d="M91.2393 18.7493C90.5131 18.7493 89.8621 18.5812 89.2862 18.245C88.7104 17.8964 88.2534 17.4357 87.9154 16.8629C87.5899 16.2776 87.4271 15.6364 87.4271 14.9391C87.4271 14.3912 87.5523 13.8745 87.8027 13.3889C88.0656 12.8908 88.4287 12.4737 88.8919 12.1375C88.4287 11.8013 88.0719 11.3966 87.8215 10.9234C87.5711 10.4378 87.4459 9.93352 87.4459 9.41055C87.4459 8.71326 87.6087 8.08445 87.9342 7.52412C88.2722 6.9638 88.7229 6.51554 89.2862 6.17934C89.8496 5.84315 90.4756 5.67505 91.1641 5.67505H96.4598V7.65487H91.4083C91.0953 7.65487 90.8073 7.7358 90.5444 7.89767C90.2815 8.04709 90.0687 8.25255 89.906 8.51403C89.7557 8.77552 89.6806 9.07436 89.6806 9.41055C89.6806 9.70939 89.762 9.98955 89.9247 10.251C90.0875 10.5125 90.3003 10.7242 90.5632 10.8861C90.8261 11.0355 91.1203 11.1102 91.4458 11.1102H95.8025V13.09H91.5585C91.1829 13.09 90.8512 13.1772 90.5632 13.3515C90.2753 13.5258 90.0499 13.7562 89.8872 14.0426C89.7369 14.3165 89.6618 14.6216 89.6618 14.9578C89.6618 15.2815 89.7369 15.5866 89.8872 15.873C90.0499 16.1469 90.269 16.371 90.5444 16.5454C90.8324 16.7072 91.1579 16.7882 91.5209 16.7882H96.4598V18.7493H91.2393Z" fill="currentColor"/>
    <path d="M95.8852 26.2622C95.7197 26.2622 95.5769 26.2292 95.4568 26.1631C95.3399 26.0937 95.2506 25.9979 95.189 25.8756C95.1273 25.7501 95.0965 25.6063 95.0965 25.4444V23.0108H93.9717V22.7927H96.4598V23.0108H95.335V25.4791C95.335 25.6476 95.3837 25.7848 95.4811 25.8905C95.5785 25.9929 95.7148 26.0442 95.8901 26.0442H96.0946V26.2622H95.8852Z" fill="currentColor"/>
    <path d="M82.8852 26.3267C82.7229 26.3267 82.5784 26.2887 82.4518 26.2127C82.3285 26.1367 82.2311 26.0326 82.1597 25.9004C82.0883 25.7649 82.0526 25.6096 82.0526 25.4345V23.5758C82.0526 23.4569 82.025 23.3495 81.9698 23.2537C81.9146 23.1578 81.8416 23.0835 81.7507 23.0306C81.6598 22.9744 81.5592 22.9464 81.4488 22.9464C81.3384 22.9464 81.2362 22.9744 81.142 23.0306C81.0512 23.0835 80.9781 23.1578 80.9229 23.2537C80.871 23.3495 80.845 23.4569 80.845 23.5758V26.2622H80.6064V23.6204C80.6064 23.4453 80.6422 23.2917 80.7136 23.1595C80.785 23.024 80.884 22.9183 81.0106 22.8423C81.1372 22.7663 81.2833 22.7283 81.4488 22.7283C81.6111 22.7283 81.7556 22.7663 81.8822 22.8423C82.0088 22.9183 82.1078 23.024 82.1792 23.1595C82.2538 23.2917 82.2912 23.4453 82.2912 23.6204V25.4791C82.2912 25.6014 82.3188 25.7104 82.3739 25.8062C82.4291 25.8988 82.5005 25.9731 82.5882 26.0293C82.6791 26.0821 82.7781 26.1086 82.8852 26.1086C82.9891 26.1086 83.0848 26.0821 83.1725 26.0293C83.2601 25.9731 83.3299 25.8988 83.3819 25.8062C83.4338 25.7104 83.4598 25.6014 83.4598 25.4791V22.7927H83.6935V25.4345C83.6935 25.6096 83.6594 25.7649 83.5912 25.9004C83.5231 26.0326 83.4273 26.1367 83.3039 26.2127C83.1838 26.2887 83.0443 26.3267 82.8852 26.3267Z" fill="currentColor"/>
    <path d="M68.5918 26.2622V26.0442H69.293V23.0108H68.5918V22.7927H70.223V23.0108H69.5267V26.0442H70.223V26.2622H68.5918Z" fill="currentColor"/>
    <path d="M56.5839 26.3267C56.3178 26.3267 56.0759 26.2804 55.8584 26.1879C55.6442 26.0954 55.4592 25.9665 55.3033 25.8013C55.1508 25.6361 55.0323 25.4444 54.9479 25.2263C54.8667 25.0082 54.8262 24.7753 54.8262 24.5275C54.8262 24.2796 54.8667 24.0467 54.9479 23.8286C55.0323 23.6105 55.1508 23.4189 55.3033 23.2537C55.4592 23.0884 55.6442 22.9596 55.8584 22.8671C56.0759 22.7745 56.3178 22.7283 56.5839 22.7283C56.8501 22.7283 57.0903 22.7745 57.3046 22.8671C57.5221 22.9596 57.7071 23.0884 57.8596 23.2537C58.0122 23.4189 58.1291 23.6105 58.2102 23.8286C58.2946 24.0467 58.3368 24.2796 58.3368 24.5275C58.3368 24.7753 58.2946 25.0082 58.2102 25.2263C58.1291 25.4444 58.0122 25.6361 57.8596 25.8013C57.7071 25.9665 57.5221 26.0954 57.3046 26.1879C57.0903 26.2804 56.8501 26.3267 56.5839 26.3267ZM56.5839 26.1086C56.8014 26.1086 57.0027 26.0689 57.1877 25.9896C57.3727 25.9103 57.5334 25.7996 57.6697 25.6575C57.8061 25.5155 57.9116 25.3486 57.9862 25.1569C58.0642 24.962 58.1031 24.7522 58.1031 24.5275C58.1031 24.2995 58.0642 24.0896 57.9862 23.898C57.9116 23.7063 57.8061 23.5395 57.6697 23.3974C57.5334 23.252 57.3727 23.1413 57.1877 23.0653C57.0027 22.986 56.8014 22.9464 56.5839 22.9464C56.3632 22.9464 56.1603 22.986 55.9753 23.0653C55.7903 23.1413 55.6296 23.252 55.4932 23.3974C55.3569 23.5395 55.2514 23.7063 55.1768 23.898C55.1021 24.0896 55.0648 24.2995 55.0648 24.5275C55.0648 24.7522 55.1021 24.962 55.1768 25.1569C55.2514 25.3486 55.3569 25.5155 55.4932 25.6575C55.6296 25.7996 55.7903 25.9103 55.9753 25.9896C56.1603 26.0689 56.3632 26.1086 56.5839 26.1086Z" fill="currentColor"/>
    <path d="M42.0146 26.2622V22.7927H43.4608C43.6653 22.7927 43.8503 22.839 44.0159 22.9315C44.1847 23.024 44.3178 23.1529 44.4151 23.3181C44.5158 23.4833 44.5661 23.6766 44.5661 23.898C44.5661 24.1095 44.5174 24.2978 44.42 24.4631C44.3259 24.6283 44.1944 24.7588 44.0256 24.8546C43.8568 24.9471 43.6604 24.9934 43.4364 24.9934H42.2532V26.2622H42.0146ZM42.2532 24.7753H43.4121C43.5841 24.7753 43.7383 24.7406 43.8747 24.6712C44.0142 24.6018 44.1246 24.501 44.2058 24.3689C44.2902 24.2367 44.3324 24.0798 44.3324 23.898C44.3324 23.7097 44.2902 23.5494 44.2058 23.4172C44.1246 23.2851 44.0142 23.1843 43.8747 23.1149C43.7383 23.0455 43.589 23.0108 43.4267 23.0108H42.2532V24.7753Z" fill="currentColor"/>
    <defs>
        <linearGradient id="paint0_linear_5_1796" x1="5.1361" y1="-0.888939" x2="30.4215" y2="32.8908" gradientUnits="userSpaceOnUse">
            <stop stop-color="#A855F7"/>
            <stop offset="0.635" stop-color="#52A5E5"/>
        </linearGradient>
    </defs>
</svg>
